<?xml version="1.0" encoding="UTF-8"?>
<svg xmlns="http://www.w3.org/2000/svg" width="116" height="30" viewBox="0 0 116 30" fill="none">
  <g clip-path="url(#clip0_190_725)">
    <path d="M27.2143 23.1427L30.8248 2.36182H34.7004L43.2277 16.5208L45.6933 2.36182H49.9497L46.3392 23.1427H42.4492L33.9219 8.96917L31.4563 23.1427H27.2143Z" fill="#8A8A8A"></path>
    <path d="M49.2965 23.1427L52.0851 7.2093H56.0909L53.3023 23.1427H49.2965ZM52.3189 2.84971C52.3189 1.41513 53.3457 0.5 54.8135 0.5C56.2813 0.5 57.2936 1.41755 57.2936 2.84971C57.2936 4.28187 56.2524 5.19942 54.8135 5.19942C53.3746 5.19942 52.3189 4.28187 52.3189 2.84971Z" fill="#8A8A8A"></path>
    <path d="M56.1608 23.1427L58.9494 7.2093H62.6321L62.4128 8.43513H62.5454C63.5576 7.40107 65.158 6.73596 66.7584 6.73596C70.0893 6.73596 72.2464 9.02742 72.2464 12.2777C72.2464 12.7802 72.203 13.2972 72.0994 13.8434L70.4701 23.1402H66.4643L68.1659 13.37C68.2093 13.1637 68.2238 12.9719 68.2238 12.7777C68.2238 11.1951 67.1368 10.1173 65.5533 10.1173C63.7047 10.1173 62.1935 11.6393 61.8392 13.62L60.181 23.1378H56.1608V23.1427Z" fill="#8A8A8A"></path>
    <path d="M73.948 16.0644C73.948 10.8916 77.6452 6.73837 82.9597 6.73837C87.0402 6.73837 90.1204 9.34053 90.1204 14.188C90.1204 14.824 90.0626 15.7537 89.8866 16.3605H77.9851C77.9706 16.4334 77.9706 16.5232 77.9706 16.5814C77.9706 18.7394 79.6577 20.2759 81.9474 20.2759C83.9142 20.2759 85.4398 19.2855 86.2761 17.8971L89.3588 19.4336C87.8476 22.0503 84.736 23.616 81.61 23.616C77.2355 23.616 73.9504 20.7031 73.9504 16.062L73.948 16.0644ZM86.2014 13.7584C86.2159 13.6856 86.2159 13.6249 86.2159 13.5521C86.2159 11.4378 84.7915 9.97408 82.6633 9.97408C80.5351 9.97408 78.672 11.4815 78.202 13.7584H86.2014Z" fill="#8A8A8A"></path>
    <path d="M91.3906 23.1427L93.5766 10.5494H90.3325L90.9206 7.20931H94.1502L95.001 2.36182H99.0212L98.1704 7.20931H101.415L100.826 10.5494H97.5968L95.4108 23.1427H91.3906Z" fill="#8A8A8A"></path>
    <path d="M99.2671 29.5L103.244 22.2567L99.6913 7.20929H103.948L105.885 17.5111L111.301 7.20929H115.895L103.596 29.4976H99.2671V29.5Z" fill="#8A8A8A"></path>
    <path d="M19.2318 8.66089C18.9787 9.88429 18.475 10.9354 17.723 11.8141C16.971 12.6928 16.0792 13.4526 15.0453 14.0934C14.0113 14.7342 12.9002 15.2925 11.7096 15.7659C10.5189 16.2392 9.3789 16.6737 8.2919 17.0694C7.2025 17.465 6.22396 17.8486 5.35629 18.2248C4.48621 18.601 3.85474 19.0234 3.45706 19.4992H14.4524C14.8645 19.4992 15.2598 19.3948 15.6382 19.1885C16.0166 18.9821 16.3685 18.7394 16.6914 18.4627C17.0361 18.1665 17.3711 17.8218 17.6965 17.4262L15.4188 23.0529H0.89502C0.989017 22.1839 1.25896 21.3998 1.70484 20.6983C2.15073 19.9968 2.7099 19.356 3.37993 18.7734C4.04996 18.1908 4.79712 17.6447 5.62382 17.13C6.44811 16.6179 7.29649 16.113 8.16657 15.6202C9.03665 15.1274 9.89468 14.6177 10.7407 14.0958C11.5866 13.5739 12.3555 13.0108 13.0496 12.4088C13.7438 11.8068 14.3343 11.1465 14.8235 10.4256C15.3128 9.70467 15.6358 8.89149 15.7948 7.98365C15.9226 7.253 15.9394 6.56848 15.8455 5.92522C15.7515 5.28439 15.5297 4.72609 15.1826 4.25275C14.8332 3.77941 14.3656 3.40317 13.7775 3.12645C13.1894 2.84972 12.4736 2.71136 11.63 2.71136C10.7093 2.71136 9.89227 2.874 9.17886 3.19927C8.46544 3.52454 7.84843 3.96389 7.33024 4.51734C6.81205 5.07078 6.38785 5.69705 6.06006 6.39856C5.73228 7.10008 5.49367 7.81616 5.34665 8.54437L3.69808 5.7019C4.19457 5.10962 4.76338 4.6023 5.40449 4.1775C6.04801 3.75271 6.72046 3.39831 7.42906 3.11188C8.13524 2.82545 8.85348 2.61912 9.58136 2.49047C10.3092 2.36182 10.9961 2.29871 11.6445 2.29871H11.7626C12.9002 2.29871 13.9703 2.42736 14.973 2.68466C15.9756 2.94196 16.8288 3.33035 17.5326 3.85466C18.234 4.37898 18.7449 5.03923 19.0679 5.83784C19.3884 6.63645 19.4439 7.5807 19.2342 8.66574L19.2318 8.66089Z" fill="#8A8A8A"></path>
    <path d="M23.7581 21.8513C23.9172 22.1183 24.1172 22.3392 24.3607 22.5164C24.6161 22.7349 24.9271 22.9121 25.2958 23.0504H17.6218C18.017 22.9121 18.393 22.7349 18.7449 22.5164C19.0293 22.3392 19.3041 22.1159 19.5668 21.8513C19.8295 21.5843 19.9886 21.2833 20.0488 20.9483L22.5627 6.5879C22.6205 6.25292 22.5651 5.95193 22.3964 5.68491C22.2276 5.4179 22.03 5.19701 21.8083 5.01981C21.5335 4.80377 21.2202 4.62415 20.8731 4.48578L26.8721 2.29385L23.6063 20.9483C23.5484 21.2833 23.5966 21.5843 23.7557 21.8513H23.7581Z" fill="#8A8A8A"></path>
  </g>
  <defs>
    <clipPath id="clip0_190_725">
      <rect width="115" height="29" fill="white" transform="translate(0.89502 0.5)"></rect>
    </clipPath>
  </defs>
</svg>
